<?xml version="1.0" encoding="UTF-8"?> <svg xmlns="http://www.w3.org/2000/svg" xmlns:xlink="http://www.w3.org/1999/xlink" version="1.1" id="Layer_1" x="0px" y="0px" viewBox="0 0 214.7 73.1" style="enable-background:new 0 0 214.7 73.1;" xml:space="preserve"> <style type="text/css"> .st0{fill:#01669F;} </style> <path class="st0" d="M25.8,72.8C11.5,72.8,0,61.2,0,47s11.6-25.7,25.8-25.7c7.7,0,15,3.5,19.9,9.5c1.9,2.3,1.5,5.7-0.8,7.6 c-2.3,1.9-5.7,1.5-7.6-0.8c-5.2-6.4-14.7-7.4-21.1-2.1s-7.2,14.6-2,21s14.7,7.4,21.1,2.1c0.8-0.7,1.5-1.4,2.2-2.2 c1.9-2.3,5.2-2.7,7.6-0.8c2.3,1.9,2.7,5.2,0.8,7.6l0,0C41,69.3,33.6,72.8,25.8,72.8z"></path> <path class="st0" d="M57.1,72.8c-3,0-5.4-2.4-5.4-5.3l0,0V26.6c0-3,2.4-5.4,5.4-5.4s5.4,2.4,5.4,5.4v40.8 C62.4,70.4,60.1,72.8,57.1,72.8L57.1,72.8z"></path> <path class="st0" d="M106.1,23.1c-6.5-3.4-14.1-3.1-20.8,1c-1,0.6-2,1.3-3,2.1c-0.3-2.9-2.9-5.1-5.9-4.8c-2.7,0.3-4.8,2.5-4.8,5.3 v40.8c0,3,2.4,5.4,5.4,5.4s5.4-2.4,5.4-5.4v-18c0-8.3,4.4-13.8,8.5-16.3c2-1.2,6-2.9,10.3-0.7c2.7,1.3,5.9,0.2,7.2-2.5 C109.5,27.6,108.6,24.5,106.1,23.1L106.1,23.1z"></path> <circle class="st0" cx="57" cy="12.1" r="6"></circle> <path class="st0" d="M172.4,72.8c-3,0-5.4-2.4-5.4-5.4l0,0V26.6c0-3,2.4-5.4,5.4-5.4s5.4,2.4,5.4,5.4v40.8 C177.8,70.4,175.4,72.8,172.4,72.8L172.4,72.8z"></path> <circle class="st0" cx="172.4" cy="12.1" r="6"></circle> <path class="st0" d="M214.7,66.8c-0.4-2.9-3-5-6-4.7l0,0c0,0-3.4,0.3-5.3-1.4c-1.1-1-1.7-2.8-1.7-5.3V32.6h6.3c3,0,5.4-2.4,5.4-5.4 s-2.4-5.4-5.4-5.4h-6.4V11.2c0-3-2.4-5.4-5.4-5.4s-5.4,2.4-5.4,5.4v10.6h-3.5c-3,0-5.4,2.4-5.4,5.4s2.4,5.4,5.4,5.4l0,0h3.5v22.8 c0,7.1,2.9,11.2,5.3,13.3c3.3,2.7,7.5,4.2,11.8,4.1c0.6,0,1.3,0,1.9-0.1C212.9,72.4,215,69.8,214.7,66.8L214.7,66.8z"></path> <path class="st0" d="M120.5,39.9c-0.6,0-1.1-0.1-1.7-0.3c-2.1-0.7-3.5-2.7-3.5-4.9V5.2c0-2.8,2.3-5.2,5.2-5.2c2.8,0,5.1,2.3,5.1,5.2 v18.9c11-5.2,24.1-2.1,31.5,7.5c1.6,2.4,0.9,5.6-1.5,7.1c-2.1,1.4-4.9,1-6.6-0.8c-5.2-6.7-14.9-8-21.6-2.8c-1.1,0.8-2,1.8-2.8,2.8 C123.6,39.2,122.1,39.9,120.5,39.9z"></path> <path class="st0" d="M136.8,73.1c-8.3,0-16.1-4-20.9-10.7c-1.8-2.2-1.5-5.5,0.7-7.3s5.5-1.5,7.3,0.7c0.1,0.2,0.3,0.4,0.4,0.5 c5,6.9,14.6,8.5,21.5,3.6c1.4-1,2.6-2.2,3.6-3.6c1.8-2.2,5.1-2.5,7.3-0.7c2,1.6,2.5,4.5,1.1,6.7C152.8,69.1,145.1,73,136.8,73.1z"></path> </svg> 